<svg xmlns="http://www.w3.org/2000/svg" width="1600" height="900" viewBox="0 0 1600 900">
  <defs>
    <linearGradient id="bg" x1="0" y1="0" x2="1" y2="1">
      <stop offset="0" stop-color="#211d1a"/>
      <stop offset="1" stop-color="#0e0c0b"/>
    </linearGradient>
    <radialGradient id="glow" cx="0.5" cy="0.4" r="0.6">
      <stop offset="0" stop-color="#c29b57" stop-opacity="0.25"/>
      <stop offset="1" stop-color="#c29b57" stop-opacity="0"/>
    </radialGradient>
  </defs>
  <rect width="1600" height="900" fill="url(#bg)"/>
  <rect width="1600" height="900" fill="url(#glow)"/>
  <ellipse cx="800" cy="640" rx="720" ry="120" fill="#12100e"/>
  <path d="M1200 520 L720 300 L470 360 L420 900 L1500 900 L1420 560 Z" fill="#15120f"/>
  <rect x="740" y="560" width="900" height="22" fill="#c29b57" opacity="0.85"/>
  <rect x="0" y="740" width="80" height="160" fill="#1a1714"/>
  <rect x="1540" y="700" width="60" height="200" fill="#1a1714"/>
  <g fill="#e9e2d4" opacity="0.92">
    <ellipse cx="600" cy="560" rx="120" ry="160"/>
    <circle cx="600" cy="420" r="70"/>
    <ellipse cx="1020" cy="580" rx="120" ry="160"/>
    <circle cx="1020" cy="440" r="70"/>
  </g>
  <g>
    <rect x="470" y="470" width="260" height="10" fill="#3a322a"/>
    <rect x="890" y="490" width="260" height="10" fill="#3a322a"/>
  </g>
  <rect x="120" y="120" width="300" height="6" fill="#c29b57" opacity="0.6"/>
  <text x="120" y="100" font-family="Georgia,serif" font-size="26" fill="#c29b57" opacity="0.85">QUARTERLY BOARDROOM</text>
</svg>